<svg xmlns="http://www.w3.org/2000/svg" xmlns:xlink="http://www.w3.org/1999/xlink" width="1080" zoomAndPan="magnify" viewBox="0 0 810 809.999993" height="1080" preserveAspectRatio="xMidYMid meet" version="1.2"><defs><clipPath id="8b172a66c9"><path d="M 283.5 283.5 L 526.5 283.5 L 526.5 526.5 L 283.5 526.5 Z M 283.5 283.5 "/></clipPath><clipPath id="94eef971ff"><path d="M 0.5 0.5 L 243.5 0.5 L 243.5 243.5 L 0.5 243.5 Z M 0.5 0.5 "/></clipPath><clipPath id="55ee182043"><rect x="0" width="244" y="0" height="244"/></clipPath><clipPath id="c883dc7e23"><path d="M 67 191 L 748 191 L 748 719.117188 L 67 719.117188 Z M 67 191 "/></clipPath></defs><g id="bc1621a117"><g clip-rule="nonzero" clip-path="url(#8b172a66c9)"><g transform="matrix(1,0,0,1,283,283)"><g clip-path="url(#55ee182043)"><g clip-rule="nonzero" clip-path="url(#94eef971ff)"><path style=" stroke:none;fill-rule:nonzero;fill:#8a1538;fill-opacity:1;" d="M 0.5 0.5 L 243.5 0.5 L 243.5 243.5 L 0.5 243.5 Z M 0.5 0.5 "/></g></g></g></g><path style=" stroke:none;fill-rule:nonzero;fill:#ff8200;fill-opacity:1;" d="M 92.144531 356.214844 C 143.191406 356.214844 184.285156 397.308594 184.285156 448.355469 L 184.285156 499.101562 C 184.285156 550.148438 143.191406 591.246094 92.144531 591.246094 C 41.097656 591.246094 0 550.148438 0 499.101562 L 0 448.355469 C 0 397.308594 41.097656 356.214844 92.144531 356.214844 Z M 92.144531 356.214844 "/><path style=" stroke:none;fill-rule:nonzero;fill:#ff8200;fill-opacity:1;" d="M 717.910156 356.214844 C 768.957031 356.214844 810.050781 397.308594 810.050781 448.355469 L 810.050781 499.101562 C 810.050781 550.148438 768.957031 591.246094 717.910156 591.246094 C 666.859375 591.246094 625.765625 550.148438 625.765625 499.101562 L 625.765625 448.355469 C 625.765625 397.308594 666.859375 356.214844 717.910156 356.214844 Z M 717.910156 356.214844 "/><path style=" stroke:none;fill-rule:nonzero;fill:#ff8200;fill-opacity:1;" d="M 289.921875 235.886719 C 289.921875 184.839844 331.015625 143.742188 382.0625 143.742188 L 432.808594 143.742188 C 483.855469 143.742188 524.953125 184.839844 524.953125 235.886719 C 524.953125 286.933594 483.855469 328.027344 432.808594 328.027344 L 382.0625 328.027344 C 331.015625 328.027344 289.921875 286.933594 289.921875 235.886719 Z M 289.921875 235.886719 "/><g clip-rule="nonzero" clip-path="url(#c883dc7e23)"><path style=" stroke:none;fill-rule:nonzero;fill:#8a1538;fill-opacity:1;" d="M 747.375 455.101562 C 747.375 600.925781 678.273438 719.140625 407.4375 719.140625 C 159.261719 719.140625 67.5 600.925781 67.5 455.101562 C 67.5 309.277344 219.695312 191.0625 407.4375 191.0625 C 595.179688 191.0625 747.375 309.277344 747.375 455.101562 Z M 747.375 455.101562 "/></g><path style=" stroke:none;fill-rule:nonzero;fill:#ffb56a;fill-opacity:1;" d="M 679.871094 455.101562 C 679.871094 545.792969 624.492188 619.3125 407.4375 619.3125 C 208.542969 619.3125 135.003906 545.792969 135.003906 455.101562 C 135.003906 364.410156 256.976562 290.890625 407.4375 290.890625 C 557.898438 290.890625 679.871094 364.410156 679.871094 455.101562 Z M 679.871094 455.101562 "/><path style=" stroke:none;fill-rule:nonzero;fill:#e0f3ff;fill-opacity:1;" d="M 407.4375 282.710938 C 330.875 282.710938 261.449219 301.3125 210.574219 331.980469 C 159.695312 362.644531 126.820312 406.089844 126.820312 455.101562 C 126.820312 502.660156 146.746094 546.863281 192 577.960938 C 237.253906 609.054688 306.980469 627.496094 407.4375 627.496094 C 516.886719 627.496094 586.6875 609.144531 629.855469 577.839844 C 673.019531 546.535156 688.054688 502.113281 688.054688 455.101562 C 688.054688 406.089844 655.179688 362.644531 604.300781 331.980469 C 553.425781 301.3125 484 282.710938 407.4375 282.710938 Z M 407.4375 299.074219 C 481.335938 299.074219 548.125 317.230469 595.851562 345.996094 C 643.574219 374.761719 671.6875 413.425781 671.6875 455.101562 C 671.6875 498.78125 659.03125 536.464844 620.246094 564.589844 C 581.460938 592.71875 515.039062 611.128906 407.4375 611.128906 C 309 611.128906 242.507812 592.808594 201.269531 564.472656 C 160.027344 536.132812 143.1875 498.234375 143.1875 455.101562 C 143.1875 413.425781 171.296875 374.761719 219.019531 345.996094 C 266.746094 317.230469 333.539062 299.074219 407.4375 299.074219 Z M 407.4375 299.074219 "/><path style=" stroke:none;fill-rule:nonzero;fill:#000f18;fill-opacity:1;" d="M 336.070312 447.796875 C 336.070312 449.421875 336.019531 451.042969 335.921875 452.65625 C 335.820312 454.273438 335.671875 455.878906 335.472656 457.46875 C 335.273438 459.0625 335.027344 460.632812 334.730469 462.1875 C 334.433594 463.742188 334.089844 465.269531 333.699219 466.769531 C 333.308594 468.269531 332.875 469.734375 332.394531 471.164062 C 331.910156 472.597656 331.386719 473.988281 330.820312 475.339844 C 330.253906 476.6875 329.648438 477.992188 329 479.246094 C 328.351562 480.5 327.667969 481.703125 326.945312 482.851562 C 326.226562 483.996094 325.46875 485.085938 324.683594 486.117188 C 323.894531 487.148438 323.074219 488.113281 322.226562 489.015625 C 321.378906 489.917969 320.503906 490.75 319.605469 491.515625 C 318.707031 492.28125 317.785156 492.972656 316.839844 493.59375 C 315.898438 494.214844 314.9375 494.761719 313.960938 495.234375 C 312.984375 495.707031 311.996094 496.097656 310.996094 496.417969 C 309.996094 496.734375 308.988281 496.972656 307.972656 497.128906 C 306.957031 497.289062 305.9375 497.367188 304.917969 497.367188 C 303.898438 497.367188 302.878906 497.289062 301.867188 497.128906 C 300.851562 496.972656 299.84375 496.734375 298.839844 496.417969 C 297.839844 496.097656 296.851562 495.707031 295.875 495.234375 C 294.898438 494.761719 293.941406 494.214844 292.996094 493.59375 C 292.054688 492.972656 291.132812 492.28125 290.234375 491.515625 C 289.335938 490.75 288.460938 489.917969 287.613281 489.015625 C 286.761719 488.113281 285.945312 487.148438 285.15625 486.117188 C 284.367188 485.085938 283.613281 483.996094 282.890625 482.851562 C 282.167969 481.703125 281.484375 480.5 280.835938 479.246094 C 280.191406 477.992188 279.585938 476.6875 279.015625 475.339844 C 278.449219 473.988281 277.925781 472.597656 277.445312 471.164062 C 276.964844 469.734375 276.527344 468.269531 276.136719 466.769531 C 275.746094 465.269531 275.402344 463.742188 275.109375 462.1875 C 274.8125 460.632812 274.5625 459.0625 274.363281 457.46875 C 274.164062 455.878906 274.015625 454.273438 273.914062 452.65625 C 273.816406 451.042969 273.765625 449.421875 273.765625 447.796875 C 273.765625 446.175781 273.816406 444.554688 273.914062 442.941406 C 274.015625 441.324219 274.167969 439.71875 274.367188 438.128906 C 274.5625 436.535156 274.8125 434.964844 275.109375 433.410156 C 275.402344 431.855469 275.746094 430.328125 276.136719 428.828125 C 276.527344 427.328125 276.964844 425.863281 277.445312 424.433594 C 277.925781 423 278.449219 421.609375 279.015625 420.257812 C 279.585938 418.910156 280.191406 417.605469 280.835938 416.351562 C 281.484375 415.097656 282.167969 413.894531 282.890625 412.746094 C 283.613281 411.597656 284.367188 410.511719 285.15625 409.480469 C 285.945312 408.449219 286.761719 407.484375 287.613281 406.582031 C 288.460938 405.679688 289.335938 404.847656 290.234375 404.082031 C 291.132812 403.316406 292.054688 402.625 292.996094 402.003906 C 293.941406 401.382812 294.898438 400.835938 295.875 400.363281 C 296.851562 399.890625 297.839844 399.5 298.839844 399.179688 C 299.84375 398.863281 300.851562 398.625 301.863281 398.46875 C 302.878906 398.308594 303.898438 398.230469 304.917969 398.230469 C 305.9375 398.230469 306.957031 398.308594 307.972656 398.46875 C 308.988281 398.625 309.996094 398.863281 310.996094 399.179688 C 311.996094 399.5 312.984375 399.890625 313.960938 400.363281 C 314.9375 400.835938 315.898438 401.378906 316.839844 402.003906 C 317.785156 402.625 318.707031 403.316406 319.605469 404.082031 C 320.503906 404.847656 321.378906 405.679688 322.226562 406.582031 C 323.074219 407.484375 323.890625 408.449219 324.679688 409.480469 C 325.46875 410.511719 326.226562 411.597656 326.945312 412.746094 C 327.667969 413.894531 328.351562 415.097656 329 416.351562 C 329.648438 417.605469 330.253906 418.910156 330.820312 420.257812 C 331.386719 421.609375 331.910156 423 332.394531 424.433594 C 332.875 425.863281 333.308594 427.328125 333.699219 428.828125 C 334.089844 430.328125 334.433594 431.855469 334.730469 433.410156 C 335.027344 434.964844 335.273438 436.535156 335.472656 438.128906 C 335.671875 439.71875 335.820312 441.324219 335.921875 442.941406 C 336.019531 444.554688 336.070312 446.175781 336.070312 447.796875 Z M 336.070312 447.796875 "/><path style=" stroke:none;fill-rule:nonzero;fill:#000f18;fill-opacity:1;" d="M 536.285156 447.796875 C 536.285156 449.421875 536.234375 451.042969 536.132812 452.65625 C 536.035156 454.273438 535.886719 455.878906 535.6875 457.46875 C 535.488281 459.0625 535.238281 460.632812 534.941406 462.1875 C 534.648438 463.742188 534.304688 465.269531 533.914062 466.769531 C 533.523438 468.269531 533.085938 469.734375 532.605469 471.164062 C 532.125 472.597656 531.601562 473.988281 531.035156 475.339844 C 530.46875 476.6875 529.859375 477.992188 529.214844 479.246094 C 528.566406 480.5 527.882812 481.703125 527.160156 482.851562 C 526.4375 483.996094 525.683594 485.085938 524.894531 486.117188 C 524.105469 487.148438 523.289062 488.113281 522.441406 489.015625 C 521.589844 489.917969 520.71875 490.75 519.816406 491.515625 C 518.917969 492.28125 517.996094 492.972656 517.054688 493.59375 C 516.113281 494.214844 515.152344 494.761719 514.175781 495.234375 C 513.199219 495.707031 512.210938 496.097656 511.210938 496.417969 C 510.207031 496.734375 509.199219 496.972656 508.183594 497.128906 C 507.167969 497.289062 506.152344 497.367188 505.132812 497.367188 C 504.109375 497.367188 503.09375 497.289062 502.078125 497.128906 C 501.0625 496.972656 500.054688 496.734375 499.054688 496.417969 C 498.054688 496.097656 497.066406 495.707031 496.089844 495.234375 C 495.113281 494.761719 494.152344 494.214844 493.210938 493.59375 C 492.269531 492.972656 491.347656 492.28125 490.445312 491.515625 C 489.546875 490.75 488.671875 489.917969 487.824219 489.015625 C 486.976562 488.113281 486.15625 487.148438 485.367188 486.117188 C 484.578125 485.085938 483.824219 483.996094 483.105469 482.851562 C 482.382812 481.703125 481.699219 480.5 481.050781 479.246094 C 480.402344 477.992188 479.796875 476.6875 479.230469 475.339844 C 478.664062 473.988281 478.140625 472.597656 477.65625 471.164062 C 477.175781 469.734375 476.742188 468.269531 476.351562 466.769531 C 475.960938 465.269531 475.617188 463.742188 475.320312 462.1875 C 475.023438 460.632812 474.777344 459.0625 474.578125 457.46875 C 474.378906 455.878906 474.230469 454.273438 474.128906 452.65625 C 474.027344 451.042969 473.976562 449.421875 473.980469 447.796875 C 473.976562 446.175781 474.027344 444.554688 474.128906 442.941406 C 474.226562 441.324219 474.378906 439.71875 474.578125 438.128906 C 474.777344 436.535156 475.023438 434.964844 475.320312 433.410156 C 475.617188 431.855469 475.957031 430.328125 476.351562 428.828125 C 476.738281 427.328125 477.175781 425.863281 477.65625 424.433594 C 478.136719 423 478.660156 421.609375 479.230469 420.257812 C 479.796875 418.910156 480.402344 417.605469 481.050781 416.351562 C 481.699219 415.097656 482.382812 413.894531 483.105469 412.746094 C 483.824219 411.597656 484.578125 410.511719 485.367188 409.480469 C 486.15625 408.449219 486.976562 407.484375 487.824219 406.582031 C 488.671875 405.679688 489.546875 404.847656 490.445312 404.082031 C 491.347656 403.316406 492.269531 402.625 493.210938 402.003906 C 494.152344 401.382812 495.113281 400.835938 496.089844 400.363281 C 497.0625 399.890625 498.054688 399.5 499.054688 399.179688 C 500.054688 398.863281 501.0625 398.625 502.078125 398.46875 C 503.09375 398.308594 504.109375 398.230469 505.132812 398.230469 C 506.152344 398.230469 507.167969 398.308594 508.183594 398.46875 C 509.199219 398.625 510.207031 398.863281 511.210938 399.179688 C 512.210938 399.5 513.199219 399.890625 514.175781 400.363281 C 515.152344 400.835938 516.109375 401.378906 517.054688 402.003906 C 517.996094 402.625 518.917969 403.316406 519.816406 404.082031 C 520.71875 404.847656 521.589844 405.679688 522.441406 406.582031 C 523.289062 407.484375 524.105469 408.449219 524.894531 409.480469 C 525.683594 410.511719 526.4375 411.597656 527.160156 412.746094 C 527.878906 413.894531 528.566406 415.097656 529.214844 416.351562 C 529.859375 417.605469 530.46875 418.910156 531.035156 420.257812 C 531.601562 421.609375 532.125 423 532.605469 424.433594 C 533.085938 425.863281 533.523438 427.328125 533.914062 428.828125 C 534.304688 430.328125 534.648438 431.855469 534.941406 433.410156 C 535.238281 434.964844 535.488281 436.535156 535.6875 438.128906 C 535.886719 439.71875 536.035156 441.324219 536.132812 442.941406 C 536.234375 444.554688 536.285156 446.175781 536.285156 447.796875 Z M 536.285156 447.796875 "/><path style=" stroke:none;fill-rule:nonzero;fill:#ff8200;fill-opacity:1;" d="M 405.40625 91.195312 C 334.976562 91.574219 264.648438 111.472656 202.902344 150.851562 C 79.414062 229.605469 12.09375 372.34375 29.867188 517.726562 C 29.960938 518.496094 30.132812 519.25 30.375 519.988281 C 30.617188 520.722656 30.925781 521.429688 31.308594 522.105469 C 31.691406 522.78125 32.132812 523.410156 32.640625 524 C 33.144531 524.585938 33.703125 525.121094 34.316406 525.597656 C 34.925781 526.074219 35.578125 526.488281 36.269531 526.839844 C 36.960938 527.1875 37.679688 527.464844 38.429688 527.675781 C 39.175781 527.882812 39.9375 528.015625 40.710938 528.074219 C 41.484375 528.132812 42.253906 528.113281 43.023438 528.019531 C 43.792969 527.925781 44.546875 527.757812 45.285156 527.515625 C 46.019531 527.273438 46.726562 526.960938 47.402344 526.578125 C 48.078125 526.195312 48.707031 525.753906 49.296875 525.246094 C 49.882812 524.742188 50.417969 524.183594 50.894531 523.570312 C 51.375 522.960938 51.785156 522.308594 52.136719 521.617188 C 52.484375 520.925781 52.761719 520.203125 52.972656 519.457031 C 53.179688 518.710938 53.3125 517.949219 53.371094 517.175781 C 53.425781 516.402344 53.410156 515.628906 53.316406 514.859375 C 36.636719 378.453125 99.742188 244.660156 215.605469 170.765625 C 331.472656 96.875 479.398438 96.082031 596.046875 168.734375 C 712.695312 241.386719 777.222656 374.503906 762 511.078125 C 761.914062 511.851562 761.902344 512.621094 761.96875 513.394531 C 762.035156 514.167969 762.175781 514.925781 762.390625 515.671875 C 762.609375 516.414062 762.894531 517.132812 763.25 517.820312 C 763.609375 518.507812 764.027344 519.15625 764.511719 519.761719 C 764.996094 520.367188 765.535156 520.921875 766.128906 521.417969 C 766.722656 521.917969 767.359375 522.355469 768.039062 522.730469 C 768.714844 523.105469 769.425781 523.410156 770.164062 523.644531 C 770.902344 523.878906 771.660156 524.039062 772.429688 524.125 C 773.199219 524.210938 773.972656 524.21875 774.746094 524.152344 C 775.515625 524.089844 776.277344 523.945312 777.019531 523.730469 C 777.765625 523.515625 778.484375 523.230469 779.171875 522.875 C 779.859375 522.515625 780.507812 522.097656 781.113281 521.609375 C 781.71875 521.128906 782.269531 520.589844 782.769531 519.996094 C 783.269531 519.402344 783.707031 518.765625 784.082031 518.085938 C 784.457031 517.40625 784.761719 516.699219 784.996094 515.960938 C 785.230469 515.21875 785.390625 514.464844 785.476562 513.695312 C 801.699219 368.128906 732.859375 226.117188 608.535156 148.6875 C 546.371094 109.96875 475.835938 90.820312 405.40625 91.195312 Z M 405.40625 91.195312 "/><path style=" stroke:none;fill-rule:nonzero;fill:#ff8200;fill-opacity:1;" d="M 43.628906 423.976562 C 42.867188 423.839844 42.097656 423.78125 41.324219 423.800781 C 40.546875 423.816406 39.78125 423.910156 39.023438 424.078125 C 38.265625 424.25 37.535156 424.488281 36.824219 424.800781 C 36.113281 425.117188 35.441406 425.496094 34.808594 425.941406 C 34.171875 426.386719 33.585938 426.886719 33.050781 427.449219 C 32.515625 428.011719 32.039062 428.617188 31.625 429.273438 C 31.207031 429.925781 30.859375 430.613281 30.578125 431.339844 C 30.300781 432.0625 30.09375 432.804688 29.957031 433.570312 C 29.957031 433.570312 18.84375 497.785156 61.972656 560.90625 C 105.105469 624.027344 201.425781 684.6875 407.4375 684.6875 C 408.210938 684.6875 408.980469 684.613281 409.742188 684.460938 C 410.503906 684.308594 411.242188 684.085938 411.957031 683.789062 C 412.675781 683.492188 413.355469 683.128906 414 682.695312 C 414.644531 682.265625 415.238281 681.777344 415.789062 681.226562 C 416.335938 680.679688 416.824219 680.082031 417.257812 679.4375 C 417.6875 678.792969 418.050781 678.113281 418.347656 677.398438 C 418.644531 676.679688 418.867188 675.941406 419.019531 675.179688 C 419.171875 674.421875 419.246094 673.652344 419.246094 672.878906 C 419.246094 672.101562 419.171875 671.332031 419.019531 670.574219 C 418.871094 669.8125 418.644531 669.074219 418.347656 668.355469 C 418.050781 667.640625 417.6875 666.960938 417.257812 666.316406 C 416.828125 665.667969 416.335938 665.074219 415.789062 664.523438 C 415.242188 663.976562 414.644531 663.484375 414 663.054688 C 413.355469 662.625 412.675781 662.261719 411.957031 661.964844 C 411.242188 661.667969 410.503906 661.441406 409.742188 661.292969 C 408.980469 661.140625 408.210938 661.066406 407.4375 661.066406 C 206.011719 661.066406 119.40625 603.089844 81.476562 547.578125 C 43.546875 492.066406 53.226562 437.648438 53.226562 437.648438 C 53.359375 436.882812 53.417969 436.113281 53.402344 435.339844 C 53.382812 434.5625 53.289062 433.796875 53.121094 433.039062 C 52.953125 432.285156 52.710938 431.550781 52.398438 430.839844 C 52.085938 430.132812 51.707031 429.460938 51.257812 428.824219 C 50.816406 428.191406 50.3125 427.605469 49.75 427.070312 C 49.191406 426.53125 48.582031 426.058594 47.929688 425.640625 C 47.273438 425.226562 46.585938 424.875 45.859375 424.597656 C 45.136719 424.316406 44.394531 424.109375 43.628906 423.976562 Z M 43.628906 423.976562 "/><path style=" stroke:none;fill-rule:nonzero;fill:#ff8200;fill-opacity:1;" d="M 373.074219 640.226562 L 441.796875 640.226562 C 458.878906 640.226562 472.628906 653.976562 472.628906 671.054688 C 472.628906 688.136719 458.878906 701.886719 441.796875 701.886719 L 373.074219 701.886719 C 355.996094 701.886719 342.246094 688.136719 342.246094 671.054688 C 342.246094 653.976562 355.996094 640.226562 373.074219 640.226562 Z M 373.074219 640.226562 "/><path style=" stroke:none;fill-rule:nonzero;fill:#000f18;fill-opacity:1;" d="M 374.304688 525.863281 C 373.402344 526.0625 372.574219 526.425781 371.816406 526.957031 C 371.058594 527.484375 370.429688 528.140625 369.929688 528.917969 C 369.683594 529.304688 369.476562 529.710938 369.308594 530.136719 C 369.144531 530.5625 369.019531 531 368.941406 531.453125 C 368.859375 531.902344 368.824219 532.355469 368.832031 532.816406 C 368.84375 533.273438 368.898438 533.722656 368.996094 534.171875 C 369.09375 534.617188 369.234375 535.050781 369.417969 535.472656 C 369.601562 535.890625 369.824219 536.289062 370.085938 536.664062 C 370.347656 537.039062 370.644531 537.382812 370.976562 537.703125 C 371.304688 538.019531 371.664062 538.300781 372.050781 538.546875 C 372.050781 538.546875 404.761719 558.90625 442.355469 538.820312 C 442.757812 538.605469 443.136719 538.351562 443.488281 538.0625 C 443.84375 537.769531 444.164062 537.449219 444.457031 537.09375 C 444.746094 536.742188 445 536.363281 445.214844 535.960938 C 445.429688 535.554688 445.605469 535.132812 445.738281 534.695312 C 445.871094 534.257812 445.960938 533.8125 446.003906 533.355469 C 446.050781 532.902344 446.050781 532.445312 446.003906 531.992188 C 445.960938 531.535156 445.871094 531.089844 445.738281 530.648438 C 445.605469 530.210938 445.433594 529.792969 445.21875 529.386719 C 445 528.984375 444.75 528.605469 444.457031 528.25 C 444.167969 527.898438 443.847656 527.574219 443.492188 527.285156 C 443.136719 526.996094 442.757812 526.742188 442.355469 526.527344 C 441.953125 526.3125 441.53125 526.136719 441.09375 526.003906 C 440.65625 525.871094 440.207031 525.78125 439.753906 525.738281 C 439.296875 525.691406 438.84375 525.691406 438.386719 525.738281 C 437.933594 525.78125 437.484375 525.871094 437.046875 526.003906 C 436.609375 526.136719 436.1875 526.308594 435.785156 526.527344 C 404.445312 543.269531 379.558594 526.800781 379.558594 526.800781 C 378.777344 526.300781 377.933594 525.972656 377.023438 525.808594 C 376.113281 525.648438 375.207031 525.667969 374.304688 525.863281 Z M 374.304688 525.863281 "/></g></svg>
